<svg width="17" height="10" viewBox="0 0 17 10" fill="none" xmlns="http://www.w3.org/2000/svg">
<path d="M12.5 0C13.163 0 13.7989 0.263392 14.2678 0.732233C14.7366 1.20107 15 1.83696 15 2.5V3.33333H15.8333C16.0543 3.33333 16.2663 3.42113 16.4226 3.57741C16.5789 3.73369 16.6667 3.94565 16.6667 4.16667V5.83333C16.6667 6.05435 16.5789 6.26631 16.4226 6.42259C16.2663 6.57887 16.0543 6.66667 15.8333 6.66667H15V7.5C15 8.16304 14.7366 8.79893 14.2678 9.26777C13.7989 9.73661 13.163 10 12.5 10H2.5C1.83696 10 1.20107 9.73661 0.732233 9.26777C0.263392 8.79893 0 8.16304 0 7.5V2.5C0 1.83696 0.263392 1.20107 0.732233 0.732233C1.20107 0.263392 1.83696 0 2.5 0H12.5ZM12.4983 1.25H2.5C2.18912 1.24981 1.88933 1.36547 1.65913 1.5744C1.42893 1.78334 1.28484 2.07056 1.255 2.38L1.25 2.5V7.5C1.24999 7.8106 1.36563 8.11009 1.57437 8.34009C1.78312 8.57009 2.07002 8.71414 2.37917 8.74417L2.5 8.75H12.4983C12.8089 8.75 13.1084 8.63437 13.3384 8.42563C13.5684 8.21688 13.7125 7.92998 13.7425 7.62083L13.7483 7.5V2.5C13.7483 2.18939 13.6327 1.88991 13.424 1.65991C13.2152 1.42991 12.9283 1.28586 12.6192 1.25583L12.4983 1.25V1.25ZM3.33333 2.5H11.6667C11.8708 2.50003 12.0678 2.57496 12.2203 2.7106C12.3728 2.84623 12.4703 3.03312 12.4942 3.23583L12.5 3.33333V6.66667C12.5 6.87078 12.425 7.06778 12.2894 7.22031C12.1538 7.37284 11.9669 7.47029 11.7642 7.49417L11.6667 7.5H3.33333C3.12922 7.49997 2.93222 7.42504 2.77969 7.2894C2.62716 7.15377 2.52971 6.96688 2.50583 6.76417L2.5 6.66667V3.33333C2.50003 3.12922 2.57496 2.93222 2.7106 2.77969C2.84623 2.62716 3.03312 2.52971 3.23583 2.50583L3.33333 2.5H11.6667H3.33333Z" fill="black"/>
</svg>
