<svg width="23" height="30" viewBox="0 0 23 30" fill="none" xmlns="http://www.w3.org/2000/svg">
<path d="M16.2104 6.89474C16.2104 9.59803 14.019 11.7895 11.3157 11.7895V13.7895C15.1235 13.7895 18.2104 10.7026 18.2104 6.89474H16.2104ZM11.3157 11.7895C8.61238 11.7895 6.42093 9.59803 6.42093 6.89474H4.42093C4.42093 10.7026 7.50781 13.7895 11.3157 13.7895V11.7895ZM6.42093 6.89474C6.42093 4.19145 8.61238 2 11.3157 2V0C7.50781 0 4.42093 3.08688 4.42093 6.89474H6.42093ZM11.3157 2C14.019 2 16.2104 4.19145 16.2104 6.89474H18.2104C18.2104 3.08688 15.1235 0 11.3157 0V2ZM6.89461 18.2105H15.7367V16.2105H6.89461V18.2105ZM15.7367 28H6.89461V30H15.7367V28ZM6.89461 28C4.19133 28 1.99988 25.8086 1.99988 23.1053H-0.00012207C-0.00012207 26.9131 3.08676 30 6.89461 30V28ZM20.6315 23.1053C20.6315 25.8086 18.44 28 15.7367 28V30C19.5446 30 22.6315 26.9131 22.6315 23.1053H20.6315ZM15.7367 18.2105C18.44 18.2105 20.6315 20.402 20.6315 23.1053H22.6315C22.6315 19.2974 19.5446 16.2105 15.7367 16.2105V18.2105ZM6.89461 16.2105C3.08676 16.2105 -0.00012207 19.2974 -0.00012207 23.1053H1.99988C1.99988 20.402 4.19133 18.2105 6.89461 18.2105V16.2105Z" fill="#2D264B"/>
</svg>
