<svg width="18" height="10" viewBox="0 0 18 10" fill="none" xmlns="http://www.w3.org/2000/svg">
<path d="M13.1667 0C13.8297 0 14.4656 0.263392 14.9344 0.732233C15.4033 1.20107 15.6667 1.83696 15.6667 2.5V3.33333H16.5C16.721 3.33333 16.933 3.42113 17.0893 3.57741C17.2455 3.73369 17.3333 3.94565 17.3333 4.16667V5.83333C17.3333 6.05435 17.2455 6.26631 17.0893 6.42259C16.933 6.57887 16.721 6.66667 16.5 6.66667H15.6667V7.5C15.6667 8.16304 15.4033 8.79893 14.9344 9.26777C14.4656 9.73661 13.8297 10 13.1667 10H3.16666C2.50362 10 1.86774 9.73661 1.3989 9.26777C0.930056 8.79893 0.666664 8.16304 0.666664 7.5V2.5C0.666664 1.83696 0.930056 1.20107 1.3989 0.732233C1.86774 0.263392 2.50362 0 3.16666 0H13.1667ZM13.165 1.25H3.16666C2.85593 1.25001 2.55634 1.36577 2.32632 1.57468C2.09629 1.7836 1.95233 2.0707 1.9225 2.38L1.91666 2.5V7.5C1.91666 7.8106 2.03229 8.11009 2.24104 8.34009C2.44978 8.57009 2.73668 8.71414 3.04583 8.74417L3.16666 8.75H13.165C13.4756 8.75 13.7751 8.63437 14.0051 8.42563C14.2351 8.21688 14.3791 7.92998 14.4092 7.62083L14.415 7.5V2.5C14.415 2.18939 14.2994 1.88991 14.0906 1.65991C13.8819 1.42991 13.595 1.28586 13.2858 1.25583L13.165 1.25V1.25Z" fill="black"/>
</svg>
