<svg width="7" height="13" viewBox="0 0 7 13" fill="none" xmlns="http://www.w3.org/2000/svg">
<path d="M4.25 11.5V2.5C4.25 2.08579 3.91421 1.75 3.5 1.75C3.08579 1.75 2.75 2.08579 2.75 2.5V11.5C2.75 11.9142 3.08579 12.25 3.5 12.25C3.91421 12.25 4.25 11.9142 4.25 11.5Z" fill="black" stroke="white" stroke-width="0.5"/>
<path d="M0.750134 2.49933C0.748996 2.98235 0.753843 3.51138 0.81078 4.00222C0.867218 4.48876 0.977599 4.96663 1.20607 5.33243C1.48304 5.77591 1.90008 6.00469 2.31882 6.12203C2.73319 6.23815 3.16595 6.25 3.5 6.25C3.83405 6.25 4.26681 6.23815 4.68118 6.12203C5.09992 6.00469 5.51696 5.77591 5.79393 5.33243C6.0224 4.96663 6.13278 4.48876 6.18922 4.00222C6.24616 3.51138 6.251 2.98235 6.24987 2.49933C6.24889 2.08503 5.91193 1.75 5.49827 1.75L3.5 1.75L1.50173 1.75C1.08806 1.75 0.75111 2.08503 0.750134 2.49933Z" fill="black" stroke="white" stroke-width="0.5"/>
<mask id="path-3-inside-1_9_4" fill="white">
<path d="M2 0.5C2 0.223858 2.22386 0 2.5 0V0C2.77614 0 3 0.223858 3 0.5V2.5C3 2.77614 2.77614 3 2.5 3V3C2.22386 3 2 2.77614 2 2.5V0.5Z"/>
</mask>
<path d="M2 0.5C2 0.223858 2.22386 0 2.5 0V0C2.77614 0 3 0.223858 3 0.5V2.5C3 2.77614 2.77614 3 2.5 3V3C2.22386 3 2 2.77614 2 2.5V0.5Z" fill="black"/>
<path d="M2 0.5V2.5H4V0.5H2ZM3 2.5V0.5H1V2.5H3ZM2.5 2C2.77614 2 3 2.22386 3 2.5H1C1 3.32843 1.67157 4 2.5 4V2ZM2 2.5C2 2.22386 2.22386 2 2.5 2V4C3.32843 4 4 3.32843 4 2.5H2ZM2.5 1C2.22386 1 2 0.776142 2 0.5H4C4 -0.328427 3.32843 -1 2.5 -1V1ZM2.5 -1C1.67157 -1 1 -0.328427 1 0.5H3C3 0.776142 2.77614 1 2.5 1V-1Z" fill="black" mask="url(#path-3-inside-1_9_4)"/>
<path d="M4 0.5C4 0.223858 4.22386 0 4.5 0V0C4.77614 0 5 0.223858 5 0.5V2.5C5 2.77614 4.77614 3 4.5 3V3C4.22386 3 4 2.77614 4 2.5V0.5Z" fill="black"/>
<rect x="3" y="6" width="1" height="1" fill="black"/>
</svg>
