<svg width="25" height="29" viewBox="0 0 25 29" fill="none" xmlns="http://www.w3.org/2000/svg">
<path d="M6.94471 23.7368L7.51313 24.7113C10.071 29.0962 15.1868 29.0962 17.7447 24.7113L18.3131 23.7368M1.52031 20.2547L1.66718 20.5575C2.61043 22.5021 4.58175 23.7368 6.74303 23.7368H18.4252C20.2773 23.7368 22.001 22.7907 22.9954 21.2282C24.3991 19.0226 24.0273 16.1292 22.1117 14.3501L22.0493 14.2922C20.7486 13.0843 20.1083 11.3246 20.3284 9.56324L20.4203 8.82865C20.9399 4.6717 17.6986 1 13.5093 1H11.0893C6.90514 1 3.66778 4.66723 4.18676 8.81911L4.29953 9.72126C4.5072 11.3826 3.90034 13.0421 2.66986 14.1776C0.98916 15.7285 0.522212 18.197 1.52031 20.2547Z" stroke="#2D264B" stroke-width="2" stroke-linecap="round"/>
</svg>
