<svg width="27" height="27" viewBox="0 0 27 27" fill="none" xmlns="http://www.w3.org/2000/svg">
<path d="M21.9453 20.5311C21.5548 20.1406 20.9216 20.1406 20.5311 20.5311C20.1406 20.9216 20.1405 21.5548 20.5311 21.9453L21.9453 20.5311ZM25.2929 26.7072C25.6834 27.0977 26.3165 27.0977 26.7071 26.7072C27.0976 26.3167 27.0976 25.6835 26.7071 25.293L25.2929 26.7072ZM9.74905 5.6324C10.2945 5.546 10.6667 5.03376 10.5803 4.48827C10.4939 3.94279 9.98166 3.57062 9.43618 3.65702L9.74905 5.6324ZM3.65698 9.43622C3.57059 9.9817 3.94275 10.4939 4.48824 10.5803C5.03372 10.6667 5.54596 10.2946 5.63236 9.74909L3.65698 9.43622ZM20.5311 21.9453L25.2929 26.7072L26.7071 25.293L21.9453 20.5311L20.5311 21.9453ZM11.7143 21.4286C6.34924 21.4286 2 17.0793 2 11.7143H0C0 18.1839 5.24467 23.4286 11.7143 23.4286V21.4286ZM21.4286 11.7143C21.4286 17.0793 17.0793 21.4286 11.7143 21.4286V23.4286C18.1839 23.4286 23.4286 18.1839 23.4286 11.7143H21.4286ZM11.7143 2C17.0793 2 21.4286 6.34924 21.4286 11.7143H23.4286C23.4286 5.24467 18.1839 0 11.7143 0V2ZM11.7143 0C5.24467 0 0 5.24467 0 11.7143H2C2 6.34924 6.34924 2 11.7143 2V0ZM9.43618 3.65702C6.46131 4.12819 4.12816 6.46134 3.65698 9.43622L5.63236 9.74909C5.96799 7.63 7.62996 5.96803 9.74905 5.6324L9.43618 3.65702Z" fill="#2D264B"/>
</svg>
